<svg width="21" height="20" viewBox="0 0 21 20" fill="none" xmlns="http://www.w3.org/2000/svg">
<g clip-path="url(#clip0_31_791)">
<path d="M19.9219 9.96094C19.9219 15.4492 15.459 19.9219 9.96094 19.9219C4.47266 19.9219 0 15.4492 0 9.96094C0 4.46289 4.47266 0 9.96094 0C15.459 0 19.9219 4.46289 19.9219 9.96094ZM10.8594 5.17578L6.79688 9.01367C6.24023 9.52148 6.24023 10.4199 6.79688 10.9277L10.8594 14.7656C11.1328 15.0195 11.6406 15.0391 11.8945 14.7949C12.1973 14.4922 12.1875 14.0234 11.9043 13.75L7.89062 9.96094L11.9043 6.19141C12.1973 5.91797 12.1875 5.42969 11.8848 5.14648C11.6113 4.88281 11.1621 4.89258 10.8594 5.17578Z" fill="white" fill-opacity="0.85"/>
</g>
<defs>
<clipPath id="clip0_31_791">
<rect width="20.2832" height="19.9316" fill="white"/>
</clipPath>
</defs>
</svg>
