<svg width="21" height="20" viewBox="0 0 21 20" fill="none" xmlns="http://www.w3.org/2000/svg">
<g clip-path="url(#clip0_31_799)">
<path d="M4.85352 11.0156C4.46289 11.0156 4.16992 10.7227 4.16992 10.332C4.16992 9.95117 4.46289 9.6582 4.85352 9.6582H9.27734V3.75C9.27734 3.36914 9.57031 3.07617 9.95117 3.07617C10.332 3.07617 10.6348 3.36914 10.6348 3.75V10.332C10.6348 10.7227 10.332 11.0156 9.95117 11.0156H4.85352ZM9.96094 19.9219C15.459 19.9219 19.9219 15.4492 19.9219 9.96094C19.9219 4.46289 15.459 0 9.96094 0C4.47266 0 0 4.46289 0 9.96094C0 15.4492 4.47266 19.9219 9.96094 19.9219Z" fill="white" fill-opacity="0.85"/>
</g>
<defs>
<clipPath id="clip0_31_799">
<rect width="20.2832" height="19.9316" fill="white"/>
</clipPath>
</defs>
</svg>
