<svg width="19" height="19" viewBox="0 0 19 19" fill="none" xmlns="http://www.w3.org/2000/svg">
<g clip-path="url(#clip0_31_803)">
<path d="M4.17969 18.4375H14.4434C16.7578 18.4375 18.623 16.8164 18.623 14.4238C18.623 12.0312 16.7578 10.4102 14.4434 10.4102H4.17969C1.86523 10.4102 0 12.0312 0 14.4238C0 16.8164 1.86523 18.4375 4.17969 18.4375ZM11.6113 16.9434C10.166 16.9434 9.00391 15.9277 9.00391 14.4141C9.00391 12.9102 10.166 11.8945 11.6113 11.8945H14.5996C16.0547 11.8945 17.207 12.9102 17.207 14.4238C17.207 15.9277 16.0547 16.9434 14.5996 16.9434H11.6113Z" fill="white" fill-opacity="0.85"/>
<path d="M4.60938 8.90625H14.0137C16.5625 8.90625 18.623 7.10938 18.623 4.45312C18.623 1.79688 16.5625 0 14.0137 0H4.60938C2.06055 0 0 1.79688 0 4.45312C0 7.10938 2.06055 8.90625 4.60938 8.90625ZM4.60938 7.43164C2.91016 7.43164 1.5332 6.23047 1.5332 4.45312C1.5332 2.67578 2.91016 1.47461 4.60938 1.47461H14.0137C15.7129 1.47461 17.0898 2.67578 17.0898 4.45312C17.0898 6.23047 15.7129 7.43164 14.0137 7.43164H4.60938Z" fill="white" fill-opacity="0.85"/>
<path d="M4.60938 6.76758H7.45117C8.7793 6.76758 9.84375 5.83008 9.84375 4.45312C9.84375 3.06641 8.7793 2.12891 7.45117 2.12891H4.60938C3.28125 2.12891 2.2168 3.06641 2.2168 4.44336C2.2168 5.83008 3.28125 6.76758 4.60938 6.76758Z" fill="white" fill-opacity="0.85"/>
</g>
<defs>
<clipPath id="clip0_31_803">
<rect width="18.9844" height="18.4668" fill="white"/>
</clipPath>
</defs>
</svg>
