<svg width="23" height="25" viewBox="0 0 23 25" fill="none" xmlns="http://www.w3.org/2000/svg">
<g clip-path="url(#clip0_37_1295)">
<path d="M18.6528 23.3957C18.9458 23.552 19.2974 23.4543 19.4634 23.1711L20.7329 20.9641C20.9087 20.6711 20.811 20.3293 20.5278 20.1535C20.2251 19.9778 19.8931 20.0754 19.7173 20.3781L18.438 22.5949C18.272 22.8781 18.3501 23.2199 18.6528 23.3957Z" fill="white" fill-opacity="0.85"/>
<path d="M16.7583 20.6608C17.0513 20.8268 17.4028 20.7291 17.5689 20.4361L18.8384 18.2389C19.0142 17.9361 18.9165 17.5943 18.6333 17.4186C18.3306 17.2525 17.9985 17.3502 17.8228 17.6432L16.5435 19.8697C16.3775 20.1529 16.4556 20.4947 16.7583 20.6608Z" fill="white" fill-opacity="0.85"/>
<path d="M14.1313 19.4893H11.9145L11.8949 19.9287L13.0863 17.6436C13.2035 17.4287 13.1156 17.2627 12.9008 17.2627H10.7816C10.4984 17.2627 10.4008 17.3604 10.3129 17.5654L8.98478 20.5928C8.87735 20.8369 8.98478 20.9834 9.23868 20.9834H11.0453L11.1723 20.4072L9.60001 24.2256C9.55118 24.3526 9.58048 24.46 9.66837 24.499C9.75626 24.5381 9.86368 24.5088 9.9711 24.4014L14.2875 19.9776C14.4926 19.7627 14.4145 19.4893 14.1313 19.4893Z" fill="white" fill-opacity="0.85"/>
<path d="M5.07848 23.3957C5.37145 23.552 5.72302 23.4543 5.88903 23.1711L7.15856 20.9641C7.33434 20.6711 7.23669 20.3293 6.94372 20.1535C6.65075 19.9778 6.31872 20.0754 6.14294 20.3781L4.85388 22.5949C4.69763 22.8781 4.77575 23.2199 5.07848 23.3957Z" fill="white" fill-opacity="0.85"/>
<path d="M3.18311 20.6608C3.47608 20.8268 3.82764 20.7291 3.99366 20.4361L5.26319 18.2389C5.43897 17.9361 5.34132 17.5943 5.04835 17.4186C4.75538 17.2525 4.42335 17.3502 4.24757 17.6432L2.96827 19.8697C2.80225 20.1529 2.88038 20.4947 3.18311 20.6608Z" fill="white" fill-opacity="0.85"/>
<path d="M5.22461 15.8662H17.3438C20.5469 15.8662 22.9297 13.4346 22.9297 10.4268C22.9297 7.31152 20.3906 5.03613 17.0801 5.03613C15.8594 2.62402 13.5938 1.07129 10.7715 1.07129C7.09961 1.07129 4.07227 3.95215 3.75 7.57519C1.98242 8.09277 0.634766 9.62598 0.634766 11.6865C0.634766 14.001 2.31445 15.8662 5.22461 15.8662Z" fill="white" fill-opacity="0.85"/>
</g>
<defs>
<clipPath id="clip0_37_1295">
<rect width="22.9297" height="24.5155" fill="white"/>
</clipPath>
</defs>
</svg>
