<svg width="23" height="23" viewBox="0 0 23 23" fill="none" xmlns="http://www.w3.org/2000/svg">
<g clip-path="url(#clip0_37_1332)">
<path d="M15.117 22.2198L18.0076 17.2198C18.1736 16.9268 18.0857 16.5753 17.7928 16.4288C17.5096 16.2725 17.1678 16.3409 17.0018 16.6436L14.1307 21.6241C13.9549 21.9171 14.0428 22.2589 14.326 22.4346C14.5994 22.6007 14.9607 22.503 15.117 22.2198Z" fill="white" fill-opacity="0.85"/>
<path d="M11.2599 22.2095L14.1212 17.2388C14.297 16.9263 14.2091 16.5943 13.9161 16.4283C13.6134 16.2525 13.2813 16.3404 13.1056 16.6529L10.2345 21.6431C10.0782 21.9166 10.1466 22.2584 10.4493 22.4341C10.7423 22.6002 11.0939 22.5025 11.2599 22.2095Z" fill="white" fill-opacity="0.85"/>
<path d="M7.37311 22.2095L10.2345 17.2388C10.4103 16.9263 10.3224 16.5943 10.0294 16.4283C9.72662 16.2525 9.39459 16.3404 9.21881 16.6529L6.34772 21.6431C6.19147 21.9166 6.25983 22.2584 6.56256 22.4341C6.85553 22.6002 7.20709 22.5025 7.37311 22.2095Z" fill="white" fill-opacity="0.85"/>
<path d="M3.47632 22.2095L6.34742 17.2388C6.5232 16.9263 6.42554 16.5943 6.13257 16.4283C5.8396 16.2525 5.50757 16.3404 5.33179 16.6529L2.45093 21.6431C2.29468 21.9166 2.37281 22.2584 2.66578 22.4341C2.95874 22.6002 3.31031 22.5025 3.47632 22.2095Z" fill="white" fill-opacity="0.85"/>
<path d="M5.22461 14.8662H17.3438C20.5469 14.8662 22.9297 12.4345 22.9297 9.42676C22.9297 6.31152 20.3906 4.03613 17.0801 4.03613C15.8594 1.62402 13.5938 0.0712891 10.7715 0.0712891C7.09961 0.0712891 4.07227 2.95215 3.75 6.57519C1.98242 7.09277 0.634766 8.62597 0.634766 10.6865C0.634766 13.0009 2.31445 14.8662 5.22461 14.8662Z" fill="white" fill-opacity="0.85"/>
</g>
<defs>
<clipPath id="clip0_37_1332">
<rect width="22.9297" height="22.5156" fill="white"/>
</clipPath>
</defs>
</svg>
