<svg width="30" height="28" viewBox="0 0 30 28" fill="none" xmlns="http://www.w3.org/2000/svg">
<g clip-path="url(#clip0_37_1276)">
<path d="M17.451 24.0725C17.7439 24.2385 17.8416 24.59 17.6658 24.883L16.3865 27.09C16.2303 27.3732 15.8689 27.4709 15.5857 27.3147C15.283 27.1389 15.1951 26.7971 15.3611 26.5139L16.6404 24.2971C16.826 23.9943 17.158 23.8967 17.451 24.0725Z" fill="white" fill-opacity="0.85"/>
<path d="M14.395 21.318C14.688 21.4937 14.7857 21.8355 14.6099 22.1383L13.3403 24.3355C13.1743 24.6285 12.8228 24.7262 12.5298 24.5601C12.2271 24.3941 12.1489 24.0426 12.315 23.7691L13.5943 21.5426C13.77 21.2496 14.1021 21.1519 14.395 21.318Z" fill="white" fill-opacity="0.85"/>
<path d="M9.6877 24.0823C9.9709 24.2483 10.0686 24.5999 9.89278 24.8929L8.62324 27.0999C8.45722 27.3831 8.10567 27.4808 7.8127 27.3245C7.51973 27.1487 7.43184 26.8069 7.59786 26.5237L8.87715 24.3069C9.05293 24.0042 9.38497 23.9065 9.6877 24.0823Z" fill="white" fill-opacity="0.85"/>
<path d="M6.63105 21.3277C6.92402 21.5035 7.01191 21.8453 6.83613 22.148L5.5666 24.3453C5.40058 24.6383 5.04902 24.7359 4.75605 24.5699C4.46308 24.4039 4.37519 24.0523 4.54121 23.7789L5.8205 21.5523C5.99628 21.2594 6.32831 21.1617 6.63105 21.3277Z" fill="white" fill-opacity="0.85"/>
<path d="M25.42 14.6582L26.9337 16.1621C27.2462 16.4746 27.2462 16.9922 26.9337 17.2949C26.6212 17.6074 26.1036 17.6172 25.8009 17.3047L24.2774 15.8008C23.9649 15.4883 23.9649 14.9707 24.2774 14.6582C24.5899 14.3555 25.1075 14.3555 25.42 14.6582ZM24.5899 10.1367C24.5899 11.8711 23.6504 13.4125 22.2577 14.2644C21.984 11.4155 19.7027 9.27733 16.7091 8.98438C16.3964 8.49073 16.0382 8.04051 15.6382 7.64215C16.4858 6.23756 18.0267 5.29297 19.7657 5.29297C22.4024 5.29297 24.5899 7.48047 24.5899 10.1367ZM29.8731 10.1367C29.8731 10.5859 29.5118 10.9473 29.0724 10.9473H26.9532C26.5235 10.9473 26.1427 10.5859 26.1427 10.1367C26.1427 9.69727 26.5235 9.32617 26.9532 9.32617H29.0724C29.5118 9.32617 29.8731 9.69727 29.8731 10.1367ZM26.9337 2.97852C27.2462 3.29102 27.2462 3.81836 26.9337 4.13086L25.4298 5.625C25.1075 5.94727 24.5899 5.9375 24.2774 5.625C23.9649 5.3125 23.9649 4.79492 24.2774 4.49219L25.8009 2.97852C26.1036 2.65625 26.6212 2.66602 26.9337 2.97852ZM13.7501 2.97852L15.254 4.49219C15.5567 4.78516 15.5567 5.32227 15.2442 5.625C14.9317 5.9375 14.4142 5.9375 14.1017 5.625L12.6075 4.12109C12.295 3.81836 12.3048 3.29102 12.6173 2.97852C12.9298 2.66602 13.4474 2.66602 13.7501 2.97852ZM20.5763 0.810547V2.92969C20.5763 3.36914 20.2052 3.73047 19.7657 3.73047C19.3263 3.73047 18.9552 3.36914 18.9552 2.92969V0.810547C18.9552 0.380859 19.3263 0 19.7657 0C20.2052 0 20.5763 0.380859 20.5763 0.810547Z" fill="white" fill-opacity="0.85"/>
<path d="M5.64453 19.668H16.2109C18.9941 19.668 21.1523 17.5586 21.1523 14.8438C21.1523 12.1484 18.9551 10.1074 16.0352 10.0879C14.9121 7.94922 12.8906 6.64062 10.4785 6.64062C7.29492 6.64062 4.59961 9.11133 4.29688 12.3242C2.67578 12.8125 1.57227 14.1992 1.57227 15.957C1.57227 18.125 3.20312 19.668 5.64453 19.668Z" fill="white" fill-opacity="0.85"/>
</g>
<defs>
<clipPath id="clip0_37_1276">
<rect width="29.873" height="27.5098" fill="white"/>
</clipPath>
</defs>
</svg>
