<svg width="30" height="22" viewBox="0 0 30 22" fill="none" xmlns="http://www.w3.org/2000/svg">
<g clip-path="url(#clip0_37_1212)">
<path d="M25.42 14.9512L26.9337 16.4551C27.2462 16.7676 27.2462 17.2852 26.9337 17.5879C26.6212 17.9004 26.1036 17.9199 25.8009 17.5977L24.2774 16.0938C23.9649 15.7812 23.9649 15.2637 24.2774 14.9512C24.5899 14.6484 25.1075 14.6484 25.42 14.9512ZM24.5899 10.4297C24.5899 12.1704 23.6505 13.7099 22.2577 14.5596C21.9843 11.7184 19.7029 9.57947 16.7091 9.27734C16.3968 8.78437 16.0392 8.3347 15.6398 7.93678C16.4877 6.53355 18.0277 5.58594 19.7657 5.58594C22.4024 5.58594 24.5899 7.7832 24.5899 10.4297ZM29.8731 10.4297C29.8731 10.8789 29.5118 11.2402 29.0724 11.2402H26.9532C26.5235 11.2402 26.1427 10.8789 26.1427 10.4297C26.1427 10 26.5235 9.61914 26.9532 9.61914H29.0724C29.5118 9.61914 29.8731 10 29.8731 10.4297ZM26.9337 3.27148C27.2462 3.58398 27.2462 4.11133 26.9337 4.42383L25.4298 5.91797C25.1075 6.24023 24.5899 6.23047 24.2774 5.91797C23.9649 5.60547 23.9649 5.08789 24.2774 4.78516L25.8009 3.27148C26.1036 2.95898 26.6212 2.95898 26.9337 3.27148ZM13.7501 3.27148L15.254 4.78516C15.5567 5.07812 15.5567 5.61523 15.2442 5.91797C14.9317 6.23047 14.4142 6.23047 14.1017 5.91797L12.6075 4.41406C12.295 4.11133 12.3048 3.58398 12.6173 3.27148C12.9298 2.95898 13.4474 2.96875 13.7501 3.27148ZM20.5763 1.10352V3.23242C20.5763 3.66211 20.2052 4.0332 19.7657 4.0332C19.3263 4.0332 18.9552 3.66211 18.9552 3.23242V1.10352C18.9552 0.673828 19.3263 0.292969 19.7657 0.292969C20.2052 0.292969 20.5763 0.673828 20.5763 1.10352Z" fill="white" fill-opacity="0.85"/>
<path d="M5.64453 19.9609H16.2109C18.9941 19.9609 21.1523 17.8516 21.1523 15.1367C21.1523 12.4414 18.9551 10.4004 16.0352 10.3809C14.9121 8.24219 12.8906 6.93359 10.4785 6.93359C7.29492 6.93359 4.59961 9.4043 4.29688 12.6172C2.67578 13.1055 1.57227 14.4922 1.57227 16.25C1.57227 18.418 3.20312 19.9609 5.64453 19.9609Z" fill="white" fill-opacity="0.85"/>
</g>
<defs>
<clipPath id="clip0_37_1212">
<rect width="29.873" height="21.1035" fill="white"/>
</clipPath>
</defs>
</svg>
