<svg width="23" height="25" viewBox="0 0 23 25" fill="none" xmlns="http://www.w3.org/2000/svg">
<g clip-path="url(#clip0_37_1351)">
<path d="M14.4828 24.3066C14.6586 24.3066 14.7856 24.1309 14.7758 23.9551L14.7074 23.0273L15.4887 23.5547C15.6254 23.6426 15.85 23.6035 15.9477 23.457C16.0356 23.3105 15.9867 23.0859 15.7914 22.998L14.9516 22.5977L15.8012 22.1777C15.9867 22.0898 16.0258 21.875 15.9574 21.7285C15.8695 21.5723 15.6254 21.543 15.4887 21.6309L14.7074 22.1777L14.7856 21.2305C14.8051 21.0449 14.6586 20.8887 14.4828 20.8887C14.2777 20.8887 14.1606 21.0449 14.1703 21.2305L14.2289 22.1777L13.4379 21.6309C13.3012 21.543 13.0961 21.5625 12.9984 21.7285C12.9106 21.875 12.9496 22.0801 13.1352 22.1777L13.975 22.5977L13.1352 23.0078C12.9496 23.0957 12.9008 23.3008 12.9887 23.457C13.0766 23.623 13.3012 23.6523 13.4379 23.5547L14.2289 23.0273L14.1801 23.9551C14.1703 24.1309 14.2777 24.3066 14.4828 24.3066Z" fill="white" fill-opacity="0.85"/>
<path d="M9.07266 24.3066C9.24844 24.3066 9.37539 24.1309 9.36562 23.9551L9.30703 23.0273L10.0785 23.5547C10.2152 23.6426 10.4399 23.6035 10.5375 23.457C10.6254 23.3105 10.5766 23.0859 10.3813 22.998L9.54141 22.5977L10.391 22.1777C10.5766 22.0898 10.6156 21.875 10.5473 21.7285C10.4594 21.5723 10.2152 21.543 10.0785 21.6309L9.30703 22.1777L9.37539 21.2305C9.39492 21.0449 9.24844 20.8887 9.07266 20.8887C8.86758 20.8887 8.75039 21.0449 8.76016 21.2305L8.81875 22.1777L8.02773 21.6309C7.89101 21.543 7.68594 21.5625 7.58828 21.7285C7.50039 21.875 7.53945 22.0801 7.725 22.1777L8.56484 22.5977L7.725 23.0078C7.53945 23.0957 7.49062 23.3008 7.57851 23.457C7.66641 23.623 7.89101 23.6523 8.02773 23.5547L8.81875 23.0273L8.76992 23.9551C8.76016 24.1309 8.86758 24.3066 9.07266 24.3066Z" fill="white" fill-opacity="0.85"/>
<path d="M3.66249 24.3066C3.83827 24.3066 3.96522 24.1309 3.95546 23.9551L3.89686 23.0273L4.66835 23.5547C4.81483 23.6426 5.02968 23.6035 5.12733 23.457C5.21522 23.3105 5.1664 23.0859 4.97108 22.998L4.141 22.5977L4.98085 22.1777C5.1664 22.0898 5.20546 21.875 5.1371 21.7285C5.04921 21.5723 4.81483 21.543 4.66835 21.6309L3.89686 22.1777L3.96522 21.2305C3.98476 21.0449 3.83827 20.8887 3.66249 20.8887C3.45741 20.8887 3.34022 21.0449 3.34999 21.2305L3.40858 22.1777L2.62733 21.6309C2.48085 21.543 2.27577 21.5625 2.17811 21.7285C2.09022 21.875 2.12929 22.0801 2.31483 22.1777L3.15468 22.5977L2.31483 23.0078C2.12929 23.0957 2.08046 23.3008 2.16835 23.457C2.25624 23.623 2.48085 23.6523 2.62733 23.5547L3.40858 23.0273L3.35976 23.9551C3.34999 24.1309 3.45741 24.3066 3.66249 24.3066Z" fill="white" fill-opacity="0.85"/>
<path d="M16.602 20.6348C16.7777 20.6348 16.9047 20.4688 16.8949 20.293L16.8266 19.3555L17.6078 19.8828C17.7445 19.9805 17.9692 19.9414 18.0668 19.7949C18.1547 19.6484 18.1059 19.4238 17.9106 19.3359L17.0707 18.9258L17.9203 18.5059C18.1059 18.418 18.1449 18.2129 18.0766 18.0566C17.9887 17.9004 17.7445 17.8711 17.6078 17.9688L16.8266 18.5059L16.9047 17.5684C16.9242 17.3828 16.7777 17.2266 16.602 17.2266C16.3969 17.2266 16.2797 17.3828 16.2895 17.5684L16.3481 18.5059L15.557 17.9688C15.4203 17.8711 15.2152 17.8906 15.1176 18.0566C15.0297 18.2129 15.0688 18.418 15.2543 18.5059L16.0942 18.9258L15.2543 19.3359C15.0688 19.4238 15.0199 19.6387 15.1078 19.7949C15.1957 19.9512 15.4203 19.9805 15.557 19.8926L16.3481 19.3652L16.2992 20.293C16.2895 20.4688 16.3969 20.6348 16.602 20.6348Z" fill="white" fill-opacity="0.85"/>
<path d="M11.1918 20.6348C11.3676 20.6348 11.4945 20.4688 11.4848 20.293L11.4262 19.3555L12.1977 19.8828C12.3344 19.9805 12.559 19.9414 12.6566 19.7949C12.7445 19.6484 12.6957 19.4238 12.5004 19.3359L11.6606 18.9258L12.5102 18.5059C12.6957 18.418 12.7348 18.2129 12.6664 18.0566C12.5785 17.9004 12.3344 17.8711 12.1977 17.9688L11.4262 18.5059L11.4945 17.5684C11.5141 17.3828 11.3676 17.2266 11.1918 17.2266C10.9867 17.2266 10.8695 17.3828 10.8793 17.5684L10.9379 18.5059L10.1469 17.9688C10.0102 17.8711 9.80507 17.8906 9.70741 18.0566C9.61952 18.2129 9.65858 18.418 9.84413 18.5059L10.684 18.9258L9.84413 19.3359C9.65858 19.4238 9.60976 19.6387 9.69765 19.7949C9.78554 19.9512 10.0102 19.9805 10.1469 19.8926L10.9379 19.3652L10.8891 20.293C10.8793 20.4688 10.9867 20.6348 11.1918 20.6348Z" fill="white" fill-opacity="0.85"/>
<path d="M5.78163 20.6348C5.95741 20.6348 6.08436 20.4688 6.0746 20.293L6.016 19.3555L6.78749 19.8828C6.92421 19.9805 7.14882 19.9414 7.24647 19.7949C7.33436 19.6484 7.28554 19.4238 7.09022 19.3359L6.26015 18.9258L7.09999 18.5059C7.28554 18.418 7.3246 18.2129 7.25624 18.0566C7.16835 17.9004 6.92421 17.8711 6.78749 17.9688L6.016 18.5059L6.08436 17.5684C6.1039 17.3828 5.95741 17.2266 5.78163 17.2266C5.57655 17.2266 5.45936 17.3828 5.46913 17.5684L5.52772 18.5059L4.74647 17.9688C4.59999 17.8711 4.39491 17.8906 4.29726 18.0566C4.20936 18.2129 4.24843 18.418 4.43397 18.5059L5.27382 18.9258L4.43397 19.3359C4.24843 19.4238 4.1996 19.6387 4.28749 19.7949C4.37538 19.9512 4.59999 19.9805 4.74647 19.8926L5.52772 19.3652L5.4789 20.293C5.46913 20.4688 5.57655 20.6348 5.78163 20.6348Z" fill="white" fill-opacity="0.85"/>
<path d="M5.22461 15.7617H17.3438C20.5469 15.7617 22.9297 13.3301 22.9297 10.3223C22.9297 7.20703 20.3906 4.93164 17.0801 4.93164C15.8594 2.51953 13.5938 0.966797 10.7715 0.966797C7.09961 0.966797 4.07227 3.84766 3.75 7.4707C1.98242 7.98828 0.634766 9.52148 0.634766 11.582C0.634766 13.8965 2.31445 15.7617 5.22461 15.7617Z" fill="white" fill-opacity="0.85"/>
</g>
<defs>
<clipPath id="clip0_37_1351">
<rect width="22.9297" height="24.3066" fill="white"/>
</clipPath>
</defs>
</svg>
