<svg width="27" height="25" viewBox="0 0 27 25" fill="none" xmlns="http://www.w3.org/2000/svg">
<g clip-path="url(#clip0_37_1314)">
<path d="M17.0025 21.2525C17.2954 21.4283 17.3931 21.7701 17.2173 22.0631L15.9478 24.2701C15.7817 24.5631 15.4302 24.6607 15.1372 24.4947C14.8345 24.319 14.7564 23.9772 14.9224 23.7037L16.2017 21.4772C16.3775 21.1842 16.7095 21.0865 17.0025 21.2525Z" fill="white" fill-opacity="0.85"/>
<path d="M13.9546 18.5081C14.2378 18.6741 14.3354 19.0159 14.1597 19.3187L12.8901 21.5159C12.7241 21.8089 12.3725 21.9065 12.0796 21.7503C11.7768 21.5745 11.6987 21.2327 11.8647 20.9495L13.144 18.7327C13.3198 18.43 13.6518 18.3323 13.9546 18.5081Z" fill="white" fill-opacity="0.85"/>
<path d="M9.2381 21.2623C9.53107 21.4381 9.62873 21.7799 9.44318 22.0729L8.17365 24.2799C8.00763 24.5729 7.65607 24.6705 7.37287 24.5045C7.07013 24.3287 6.98224 23.9869 7.14826 23.7135L8.42755 21.4869C8.6131 21.194 8.94513 21.0963 9.2381 21.2623Z" fill="white" fill-opacity="0.85"/>
<path d="M6.18146 18.5179C6.47443 18.6839 6.57209 19.0257 6.3963 19.3284L5.11701 21.5257C4.95099 21.8187 4.59943 21.9163 4.31623 21.7601C4.01349 21.5843 3.9256 21.2425 4.09162 20.9593L5.37091 18.7425C5.55646 18.4397 5.88849 18.3421 6.18146 18.5179Z" fill="white" fill-opacity="0.85"/>
<path d="M20.6838 0.842147C20.6838 1.35973 19.9904 2.30699 19.9904 3.59606C19.9904 5.84215 21.4357 7.2191 23.8576 7.2191C25.2346 7.2191 25.9377 6.5941 26.4162 6.5941C26.7287 6.5941 26.8947 6.87731 26.8947 7.25817C26.8947 8.72022 25.3322 11.3624 22.0974 11.8043C21.9771 8.76639 19.6379 6.46773 16.5139 6.14488C16.2228 5.68813 15.895 5.27069 15.5332 4.89836C16.078 2.24025 18.3399 0.422087 20.0881 0.353866C20.469 0.3441 20.6838 0.539413 20.6838 0.842147Z" fill="white" fill-opacity="0.85"/>
<path d="M5.41016 16.8584H15.9863C18.75 16.8584 20.8984 14.7686 20.8984 12.0635C20.8984 9.36817 18.7109 7.33692 15.791 7.31739C14.6484 5.13966 12.6172 3.87012 10.2539 3.87012C7.08008 3.87012 4.38477 6.34083 4.0918 9.54395C2.43164 10.042 1.36719 11.4483 1.36719 13.167C1.36719 15.3545 3.01758 16.8584 5.41016 16.8584Z" fill="white" fill-opacity="0.85"/>
</g>
<defs>
<clipPath id="clip0_37_1314">
<rect width="26.8945" height="24.5852" fill="white"/>
</clipPath>
</defs>
</svg>
