<svg width="30" height="29" viewBox="0 0 30 29" fill="none" xmlns="http://www.w3.org/2000/svg">
<g clip-path="url(#clip0_37_1243)">
<path d="M12.7731 21.9893L11.8815 23.6787H13.8181C14.1013 23.6787 14.1696 23.9424 13.9645 24.1475L9.83371 28.3272C9.74582 28.4346 9.6384 28.4639 9.55051 28.4248C9.45285 28.3858 9.42356 28.2881 9.48215 28.1514L10.7367 25.1338H9.10129C8.85715 25.1338 8.74973 24.9873 8.84739 24.7529L10.0974 21.9112C10.1852 21.7158 10.2731 21.6182 10.5466 21.6182H12.5876C12.8024 21.6182 12.8903 21.7744 12.7731 21.9893Z" fill="white" fill-opacity="0.85"/>
<path d="M25.4295 15.124L26.9236 16.6279C27.2361 16.9404 27.2361 17.458 26.9236 17.7705C26.6111 18.083 26.1033 18.083 25.7908 17.7705L24.2771 16.2569C23.9646 15.9444 23.9744 15.4365 24.2771 15.124C24.5799 14.8115 25.1072 14.8018 25.4295 15.124ZM24.6287 10.6123C24.6287 12.3509 23.7134 13.8751 22.3353 14.7251C22.0609 11.8597 19.7788 9.71257 16.7674 9.40137C16.4485 8.89876 16.0855 8.44435 15.6826 8.04489C16.5347 6.6763 18.0535 5.76855 19.785 5.76855C22.4607 5.76855 24.6287 7.93652 24.6287 10.6123ZM29.8728 10.6123C29.8728 11.0615 29.5115 11.4229 29.0721 11.4229H26.9529C26.5232 11.4229 26.1424 11.0615 26.1424 10.6123C26.1424 10.1631 26.5232 9.80176 26.9529 9.80176H29.0721C29.5115 9.80176 29.8728 10.1631 29.8728 10.6123ZM26.9236 3.46387C27.2361 3.77637 27.2361 4.29394 26.9236 4.60644L25.4295 6.10058C25.1072 6.42285 24.5799 6.41308 24.2771 6.10058C23.9744 5.78808 23.9646 5.28027 24.2771 4.96777L25.7908 3.46387C26.1033 3.1416 26.6111 3.15137 26.9236 3.46387ZM13.7498 3.4541L15.2537 4.96777C15.5662 5.28027 15.5564 5.78808 15.2537 6.10058C14.951 6.41308 14.4236 6.42285 14.1014 6.10058L12.617 4.60644C12.2947 4.28418 12.3045 3.7666 12.617 3.4541C12.9295 3.1416 13.4373 3.1416 13.7498 3.4541ZM20.576 1.2959V3.40527C20.576 3.84473 20.2146 4.21582 19.7654 4.21582C19.3162 4.21582 18.9549 3.84473 18.9549 3.40527V1.2959C18.9549 0.856446 19.3162 0.485352 19.7654 0.485352C20.2146 0.485352 20.576 0.856446 20.576 1.2959Z" fill="white" fill-opacity="0.85"/>
<path d="M5.67383 20.1143H16.2402C19.0039 20.1143 21.1523 18.0147 21.1523 15.3096C21.1523 12.624 18.9648 10.5928 16.0449 10.5733C14.9023 8.38574 12.8711 7.12598 10.5078 7.12598C7.33398 7.12598 4.63867 9.58691 4.3457 12.7998C2.68555 13.2979 1.62109 14.7041 1.62109 16.4229C1.62109 18.6104 3.27148 20.1143 5.67383 20.1143Z" fill="white" fill-opacity="0.85"/>
</g>
<defs>
<clipPath id="clip0_37_1243">
<rect width="29.873" height="28.4412" fill="white"/>
</clipPath>
</defs>
</svg>
