<svg width="23" height="23" viewBox="0 0 23 23" fill="none" xmlns="http://www.w3.org/2000/svg">
<g clip-path="url(#clip0_37_1258)">
<path d="M15.5172 22.2099L18.4078 17.2099C18.5738 16.917 18.4859 16.5849 18.2027 16.4189C17.9293 16.2431 17.5777 16.331 17.4019 16.6338L14.5308 21.6142C14.3648 21.9072 14.4527 22.249 14.7359 22.4248C15.0191 22.5908 15.3512 22.5029 15.5172 22.2099Z" fill="white" fill-opacity="0.85"/>
<path d="M13.2515 19.4266L14.521 17.2196C14.6968 16.9266 14.5991 16.5848 14.3061 16.409C14.0132 16.243 13.6811 16.3309 13.5054 16.6337L12.2261 18.8602C12.06 19.1337 12.1382 19.4755 12.4409 19.6512C12.7339 19.8173 13.0854 19.7098 13.2515 19.4266Z" fill="white" fill-opacity="0.85"/>
<path d="M7.75383 22.2197L10.6347 17.2197C10.8007 16.9267 10.7226 16.5947 10.4394 16.4287C10.1561 16.2529 9.79484 16.3408 9.62883 16.6435L6.7675 21.624C6.60148 21.917 6.67961 22.2588 6.97258 22.4345C7.25578 22.6006 7.58781 22.5029 7.75383 22.2197Z" fill="white" fill-opacity="0.85"/>
<path d="M5.47834 19.4364L6.74787 17.2294C6.93341 16.9364 6.83576 16.5946 6.54279 16.4188C6.24982 16.2528 5.91779 16.3407 5.73224 16.6434L4.45294 18.87C4.28693 19.1434 4.37482 19.4852 4.67755 19.661C4.96076 19.827 5.31232 19.7196 5.47834 19.4364Z" fill="white" fill-opacity="0.85"/>
<path d="M5.22461 14.8662H17.3438C20.5469 14.8662 22.9297 12.4345 22.9297 9.42676C22.9297 6.31152 20.3906 4.03613 17.0801 4.03613C15.8594 1.62402 13.5938 0.0712891 10.7715 0.0712891C7.09961 0.0712891 4.07227 2.95215 3.75 6.57519C1.98242 7.09277 0.634766 8.62597 0.634766 10.6865C0.634766 13.0009 2.31445 14.8662 5.22461 14.8662Z" fill="white" fill-opacity="0.85"/>
</g>
<defs>
<clipPath id="clip0_37_1258">
<rect width="22.9297" height="22.5156" fill="white"/>
</clipPath>
</defs>
</svg>
