<svg width="18" height="20" viewBox="0 0 18 20" fill="none" xmlns="http://www.w3.org/2000/svg">
<g clip-path="url(#clip0_37_1368)">
<path d="M8.20996 10.1108L8.17453 10.696L5.23665 12.6467L4.17267 13.2612L4.18196 15.9573C4.18196 16.3284 3.90853 16.6213 3.52767 16.6116C3.15657 16.6213 2.8929 16.3284 2.90267 15.9573L2.88885 14.0025L1.07649 15.0491C0.695635 15.2639 0.314775 15.1663 0.109697 14.7854C-0.105147 14.4143 0.00227541 14.053 0.373369 13.8284L2.1853 12.7863L0.490556 11.7971C0.178056 11.6213 0.0608692 11.2503 0.246416 10.928C0.422197 10.5862 0.832353 10.5081 1.13509 10.6936L3.47093 12.0469L4.53353 11.4358L7.69479 9.85515L8.20996 10.1108ZM14.4066 3.76L14.4204 5.73014L16.2425 4.67797C16.6038 4.46312 16.9847 4.55101 17.1898 4.92211C17.4242 5.2932 17.3167 5.67406 16.9359 5.88891L15.1229 6.94011L16.8187 7.92992C17.1312 8.1057 17.2484 8.4768 17.0726 8.7893C16.887 9.13109 16.4867 9.21898 16.1742 9.03344L13.8471 7.67983L12.7757 8.30101L9.6301 9.85809L9.09241 9.58925L9.12898 9.02811L12.0824 7.08031L13.1366 6.47152L13.1273 3.76C13.1273 3.39867 13.4007 3.1057 13.7913 3.11547C14.1527 3.1057 14.4163 3.39867 14.4066 3.76Z" fill="white" fill-opacity="0.85"/>
<path d="M12.7852 11.4358L13.8379 12.0426L16.1739 10.6838C16.4864 10.4983 16.8867 10.5764 17.0723 10.9182C17.2481 11.2405 17.1309 11.6116 16.8184 11.7874L15.1173 12.7802L16.9356 13.8284C17.3067 14.0432 17.4239 14.4143 17.209 14.7756C17.0039 15.1663 16.6133 15.2542 16.2422 15.0491L14.42 13.9993L14.4063 15.9475C14.416 16.3186 14.1524 16.6116 13.791 16.6018C13.4004 16.6116 13.127 16.3186 13.127 15.9475L13.1362 13.2597L12.0723 12.6467L9.12764 10.6837L9.07419 9.86352L9.09206 9.58926L12.7852 11.4358ZM4.18161 3.76977L4.17236 6.46142L5.22653 7.07056L8.17332 9.01669L8.22458 9.86352L8.20961 10.1108L4.54294 8.29126L3.48696 7.68042L1.13474 9.04321C0.832008 9.22876 0.421852 9.14087 0.246071 8.79907C0.0605237 8.48657 0.177711 8.11548 0.490211 7.9397L2.20496 6.93884L0.373024 5.87915C-0.00783575 5.67407 -0.105492 5.28345 0.119118 4.92212C0.343727 4.55102 0.705055 4.46313 1.08591 4.67798L2.88858 5.71962L2.90232 3.76977C2.89255 3.40845 3.15622 3.11548 3.52732 3.12524C3.90818 3.11548 4.18161 3.40845 4.18161 3.76977Z" fill="white" fill-opacity="0.85"/>
<path d="M8.64456 19.7268C9.07425 19.7366 9.35745 19.4631 9.35745 19.0139V14.2092L9.07425 9.86353L9.35745 5.51783V0.703378C9.35745 0.263925 9.07425 -0.00951246 8.64456 0.000253163C8.22464 0.000253163 7.96097 0.273691 7.96097 0.703378V5.50807L8.22464 9.86353L7.96097 14.219V19.0139C7.96097 19.4534 8.22464 19.7268 8.64456 19.7268ZM11.9356 2.04127C11.75 1.719 11.3692 1.64088 11.0567 1.82643L8.65433 3.20338L6.25199 1.82643C5.93949 1.64088 5.55863 1.719 5.37308 2.04127C5.168 2.3733 5.30472 2.75416 5.60745 2.93971L8.07816 4.34596C8.25394 4.44361 8.44925 4.49244 8.65433 4.49244C8.84964 4.49244 9.06449 4.44361 9.2305 4.34596L11.7012 2.93971C12.0137 2.75416 12.1406 2.3733 11.9356 2.04127ZM5.37308 17.6858C5.55863 18.0081 5.93949 18.0764 6.25199 17.9006L8.65433 16.5237L11.0567 17.9006C11.3692 18.0764 11.75 18.0081 11.9356 17.6858C12.1406 17.3538 12.0137 16.9729 11.7012 16.7874L9.2305 15.3811C9.05472 15.2835 8.85941 15.2346 8.65433 15.2346C8.45902 15.2346 8.24417 15.2835 8.07816 15.3811L5.60745 16.7874C5.30472 16.9729 5.168 17.3538 5.37308 17.6858Z" fill="white" fill-opacity="0.85"/>
</g>
<defs>
<clipPath id="clip0_37_1368">
<rect width="17.6803" height="19.7368" fill="white"/>
</clipPath>
</defs>
</svg>
